# xmcd CD database file
#
# Track frame offsets:
#	150
#	20893
#	36798
#	55148
#	69040
#	84740
#	99633
#	118270
#	134133
#	149260
#	168923
#	187903
#	202913
#	213383
#	226915
#	242603
#	259643
#	281440
#	294133
#	311405
#	325148
#
# Disc length: 4616 seconds
#
# Revision: 0
# Processed by: cddbd v1.4PL0 Copyright (c) Steve Scherf et al.
# Submitted via: CDex 1.50
#
DISCID=2b120615
DTITLE=Paolo Conte - Aqua Plana 1&2
DYEAR=1987
DGENRE=Jazz
TTITLE0=Aguaplano
TTITLE1=Baci senza memoria
TTITLE2=Languida
TTITLE3=Paso doble
TTITLE4=Dopo le sei
TTITLE5=Max
TTITLE6=Blu notte
TTITLE7=La negra
TTITLE8=Hesitation
TTITLE9=Ratafia
TTITLE10=Nessuno mi ama
TTITLE11=Midnight's knock out
TTITLE12=Anni
TTITLE13=Spassiunatamente
TTITLE14=Non sense
TTITLE15=Les tam-tam du Paradis
TTITLE16=Amada mia
TTITLE17=Recitando
TTITLE18=Gratis
TTITLE19=Troppo difficile
TTITLE20=Jimmy, ballando 
EXTD=YEAR: 1987
EXTT0=
EXTT1=
EXTT2=
EXTT3=
EXTT4=
EXTT5=
EXTT6=
EXTT7=
EXTT8=
EXTT9=
EXTT10=
EXTT11=
EXTT12=
EXTT13=
EXTT14=
EXTT15=
EXTT16=
EXTT17=
EXTT18=
EXTT19=
EXTT20=
PLAYORDER=
